<svg xmlns="http://www.w3.org/2000/svg" viewBox="0 0 1600 400">
  <defs>
    <linearGradient id="bgG" x1="0" y1="0" x2="1" y2="1">
      <stop offset="0" stop-color="#0a0a0d"/><stop offset="0.5" stop-color="#131310"/><stop offset="1" stop-color="#0a0a0d"/>
    </linearGradient>
    <linearGradient id="stream" x1="0" y1="0" x2="1" y2="0">
      <stop offset="0" stop-color="#e8c258" stop-opacity="0"/>
      <stop offset="0.5" stop-color="#f3d985" stop-opacity="0.55"/>
      <stop offset="1" stop-color="#e8c258" stop-opacity="0"/>
    </linearGradient>
    <linearGradient id="goldTxt" x1="0" y1="1" x2="1" y2="0">
      <stop offset="0" stop-color="#b98a35"/><stop offset="0.6" stop-color="#ecd084"/><stop offset="1" stop-color="#f9ecc0"/>
    </linearGradient>
  </defs>
  <defs>
    <linearGradient id="goldA" x1="0" y1="1" x2="0.85" y2="0">
      <stop offset="0" stop-color="#8a6524"/>
      <stop offset="0.38" stop-color="#c79c44"/>
      <stop offset="0.72" stop-color="#ecd084"/>
      <stop offset="1" stop-color="#f9ecc0"/>
    </linearGradient>
    <linearGradient id="goldT" x1="0" y1="1" x2="1" y2="0">
      <stop offset="0" stop-color="#7a5a1e"/>
      <stop offset="0.55" stop-color="#bd8f3a"/>
      <stop offset="1" stop-color="#e7c77e"/>
    </linearGradient>
    <linearGradient id="arrowG" x1="0" y1="1" x2="1" y2="0">
      <stop offset="0" stop-color="#ecd594"/>
      <stop offset="1" stop-color="#fdf4d2"/>
    </linearGradient>
    <filter id="blur18"><feGaussianBlur stdDeviation="18"/></filter>
    <filter id="blur8"><feGaussianBlur stdDeviation="8"/></filter>
  </defs>
  <rect width="1600" height="400" fill="url(#bgG)"/>
  <g stroke="url(#stream)" stroke-width="1.4" fill="none" opacity="0.5">
    <path d="M-20 328.0 C 480.0 272.0, 800.0 352.0, 1620 220.00000000000003"/>
    <path d="M-20 248.0 C 512.0 200.0, 960.0 280.0, 1620 152.0"/>
  </g>
  <g fill="#f3d985" opacity="0.55">
    <circle cx="352.0" cy="298.0" r="2.5"/><circle cx="880.0000000000001" cy="308.0" r="2"/>
    <circle cx="640.0" cy="222.00000000000003" r="2.5"/><circle cx="1248.0" cy="224.00000000000003" r="2"/>
  </g>
  <g transform="translate(1230,120.0)" opacity="0.9">
    <g stroke="#2e8f5f" stroke-width="2">
      <line x1="0" y1="200.0" x2="0" y2="88.0"/><rect x="-9" y="108.0" width="18" height="68.0" rx="3" fill="#14241c" stroke="#2e8f5f"/>
      <line x1="38" y1="168.0" x2="38" y2="40.0"/><rect x="29" y="60.0" width="18" height="80.0" rx="3" fill="#14241c" stroke="#2e8f5f"/>
    </g>
    <g stroke="#8f3a3a" stroke-width="2">
      <line x1="76" y1="136.0" x2="76" y2="24.0"/><rect x="67" y="36.0" width="18" height="64.0" rx="3" fill="#241414" stroke="#8f3a3a"/>
    </g>
    <g stroke="#2e8f5f" stroke-width="2">
      <line x1="114" y1="96.0" x2="114" y2="-32.0"/><rect x="105" y="-12.0" width="18" height="88.0" rx="3" fill="#14241c" stroke="#2e8f5f"/>
    </g>
    <path d="M-16 200.0 L128 -24.0 M108 -24.0 H132 V24.0" fill="none" stroke="url(#goldTxt)" stroke-width="4" stroke-linecap="round" stroke-linejoin="round"/>
  </g>
  <g transform="translate(95,50) scale(0.3)">


  <!-- soft gold glow underlay (export-safe) -->
  <g filter="url(#blur18)" opacity="0.5">
    <path d="M470 238 H965 V322 H470 Z M804 322 H888 V692 H804 Z" fill="#caa14e"/>
    <path d="M400 75 L715 950 H609 L400 369 L191 950 H85 Z" fill="#e0b95c"/>
    <path d="M281 700 H519 L550 786 H250 Z" fill="#e0b95c"/>
  </g>

  <!-- T (behind the A) -->
  <path d="M470 238 H965 V322 H470 Z" fill="url(#goldT)"/>
  <path d="M804 322 H888 V692 H804 Z" fill="url(#goldT)"/>
  <path d="M474 244 H960" stroke="#fff3cf" stroke-width="7" opacity="0.5"/>

  <!-- A -->
  <path d="M400 75 L715 950 H609 L400 369 L191 950 H85 Z" fill="url(#goldA)"/>
  <path d="M281 700 H519 L550 786 H250 Z" fill="url(#goldA)"/>
  <!-- specular edge highlights -->
  <path d="M396 140 L268 552" stroke="#fff7da" stroke-width="9" opacity="0.5" stroke-linecap="round"/>
  <path d="M412 116 L468 272" stroke="#fff7da" stroke-width="7" opacity="0.35" stroke-linecap="round"/>

  <!-- chart arrow in the counter -->
  <g filter="url(#blur8)" opacity="0.55">
    <path d="M306 642 L368 574 L402 604 L452 524" stroke="#f4e2a8" stroke-width="26" fill="none" stroke-linecap="round" stroke-linejoin="round"/>
  </g>
  <path d="M306 642 L368 574 L402 604 L452 524" stroke="url(#arrowG)" stroke-width="22"
        fill="none" stroke-linecap="round" stroke-linejoin="round"/>
  <path d="M472 488 L408 496 L446 548 Z" fill="url(#arrowG)"/>

  </g>
  <text x="460" y="185" font-family="'Chakra Petch','Segoe UI',sans-serif" font-weight="700" font-size="64" letter-spacing="7.68" fill="url(#goldTxt)">ASCENT TERMINAL</text>
  <text x="463" y="240" font-family="'Segoe UI',sans-serif" font-weight="600" font-size="17" letter-spacing="7.14" fill="#9c8b62">CHARTS · SIGNALS · BOTS — NON-CUSTODIAL</text>
  <text x="463" y="285" font-family="'Segoe UI',sans-serif" font-size="14" letter-spacing="2" fill="#6e6347">Validated EMA30 daily trend · tools &amp; transparency, not promises</text>
  <rect x="1" y="1" width="1598" height="398" rx="10" fill="none" stroke="#2a2618"/>
  <path d="M12 399 H576.0" stroke="url(#goldTxt)" stroke-width="2" opacity="0.7"/>
</svg>